<mxfile host="app.diagrams.net" modified="2021-05-14T12:03:52.273Z" agent="5.0 (Windows)" etag="5vmals8lxfUO9xao6h7i" version="14.6.13" type="github">
  <diagram id="C5RBs43oDa-KdzZeNtuy" name="Page-1">
    <mxGraphModel dx="868" dy="451" grid="1" gridSize="10" guides="1" tooltips="1" connect="1" arrows="1" fold="1" page="1" pageScale="1" pageWidth="827" pageHeight="1169" math="0" shadow="0">
      <root>
        <mxCell id="WIyWlLk6GJQsqaUBKTNV-0" />
        <mxCell id="WIyWlLk6GJQsqaUBKTNV-1" parent="WIyWlLk6GJQsqaUBKTNV-0" />
        <mxCell id="--8OfGOdi-1qrSHV2bzc-3" value="404" style="edgeStyle=orthogonalEdgeStyle;rounded=0;orthogonalLoop=1;jettySize=auto;html=1;entryX=0.442;entryY=-0.017;entryDx=0;entryDy=0;entryPerimeter=0;exitX=0;exitY=0.5;exitDx=0;exitDy=0;" edge="1" parent="WIyWlLk6GJQsqaUBKTNV-1" source="--8OfGOdi-1qrSHV2bzc-1" target="--8OfGOdi-1qrSHV2bzc-2">
          <mxGeometry relative="1" as="geometry" />
        </mxCell>
        <mxCell id="--8OfGOdi-1qrSHV2bzc-6" value="200" style="edgeStyle=orthogonalEdgeStyle;rounded=0;orthogonalLoop=1;jettySize=auto;html=1;entryX=0.5;entryY=0;entryDx=0;entryDy=0;exitX=1;exitY=0.5;exitDx=0;exitDy=0;" edge="1" parent="WIyWlLk6GJQsqaUBKTNV-1" source="--8OfGOdi-1qrSHV2bzc-1" target="--8OfGOdi-1qrSHV2bzc-7">
          <mxGeometry relative="1" as="geometry" />
        </mxCell>
        <mxCell id="--8OfGOdi-1qrSHV2bzc-1" value="&#xa;&lt;span style=&quot;color: rgb(51 , 102 , 255)&quot;&gt;GET /notification_methods?bank_code=$bank_code&amp;amp;flow=ORANGE&lt;/span&gt;&#xa;&#xa;" style="rounded=0;whiteSpace=wrap;html=1;" vertex="1" parent="WIyWlLk6GJQsqaUBKTNV-1">
          <mxGeometry x="160" y="120" width="300" height="50" as="geometry" />
        </mxCell>
        <mxCell id="--8OfGOdi-1qrSHV2bzc-2" value="LOTConf=RED" style="rounded=0;whiteSpace=wrap;html=1;" vertex="1" parent="WIyWlLk6GJQsqaUBKTNV-1">
          <mxGeometry x="60" y="220" width="120" height="60" as="geometry" />
        </mxCell>
        <mxCell id="--8OfGOdi-1qrSHV2bzc-5" value="&lt;div style=&quot;font-family: &amp;#34;consolas&amp;#34; , &amp;#34;courier new&amp;#34; , monospace ; font-weight: normal ; font-size: 12px ; line-height: 18px&quot;&gt;&lt;div&gt;&lt;pre style=&quot;font-family: &amp;#34;jetbrains mono&amp;#34; , monospace&quot;&gt;&lt;span style=&quot;background-color: rgb(255 , 255 , 255)&quot;&gt;idvMethods=&lt;/span&gt;&lt;span style=&quot;background-color: rgb(255 , 255 , 255)&quot;&gt;notification_methods&lt;/span&gt;&lt;/pre&gt;&lt;/div&gt;&lt;/div&gt;" style="rounded=0;whiteSpace=wrap;html=1;" vertex="1" parent="WIyWlLk6GJQsqaUBKTNV-1">
          <mxGeometry x="420" y="320" width="270" height="60" as="geometry" />
        </mxCell>
        <mxCell id="--8OfGOdi-1qrSHV2bzc-8" style="edgeStyle=orthogonalEdgeStyle;rounded=0;orthogonalLoop=1;jettySize=auto;html=1;entryX=0.25;entryY=0;entryDx=0;entryDy=0;" edge="1" parent="WIyWlLk6GJQsqaUBKTNV-1" source="--8OfGOdi-1qrSHV2bzc-7" target="--8OfGOdi-1qrSHV2bzc-5">
          <mxGeometry relative="1" as="geometry" />
        </mxCell>
        <mxCell id="--8OfGOdi-1qrSHV2bzc-7" value="&lt;div&gt;otp_by_sms=cell_phone&lt;/div&gt;&lt;div&gt;otp_by_email=email&lt;/div&gt;&lt;code class=&quot;java plain&quot;&gt;customer_service=mergue(issuer-prisma)&lt;/code&gt;" style="rounded=0;whiteSpace=wrap;html=1;" vertex="1" parent="WIyWlLk6GJQsqaUBKTNV-1">
          <mxGeometry x="420" y="190" width="260" height="80" as="geometry" />
        </mxCell>
        <mxCell id="--8OfGOdi-1qrSHV2bzc-10" style="edgeStyle=orthogonalEdgeStyle;rounded=0;orthogonalLoop=1;jettySize=auto;html=1;exitX=0;exitY=0.5;exitDx=0;exitDy=0;entryX=0.5;entryY=0;entryDx=0;entryDy=0;" edge="1" parent="WIyWlLk6GJQsqaUBKTNV-1" source="--8OfGOdi-1qrSHV2bzc-9" target="--8OfGOdi-1qrSHV2bzc-11">
          <mxGeometry relative="1" as="geometry" />
        </mxCell>
        <mxCell id="--8OfGOdi-1qrSHV2bzc-9" value="LOTConf" style="ellipse;whiteSpace=wrap;html=1;aspect=fixed;" vertex="1" parent="WIyWlLk6GJQsqaUBKTNV-1">
          <mxGeometry x="384" width="56" height="56" as="geometry" />
        </mxCell>
        <mxCell id="--8OfGOdi-1qrSHV2bzc-12" value="SI" style="edgeStyle=orthogonalEdgeStyle;rounded=0;orthogonalLoop=1;jettySize=auto;html=1;exitX=0.5;exitY=1;exitDx=0;exitDy=0;" edge="1" parent="WIyWlLk6GJQsqaUBKTNV-1" source="--8OfGOdi-1qrSHV2bzc-11" target="--8OfGOdi-1qrSHV2bzc-1">
          <mxGeometry relative="1" as="geometry" />
        </mxCell>
        <mxCell id="--8OfGOdi-1qrSHV2bzc-15" value="NO" style="edgeStyle=orthogonalEdgeStyle;rounded=0;orthogonalLoop=1;jettySize=auto;html=1;entryX=1;entryY=0.5;entryDx=0;entryDy=0;" edge="1" parent="WIyWlLk6GJQsqaUBKTNV-1" source="--8OfGOdi-1qrSHV2bzc-11" target="--8OfGOdi-1qrSHV2bzc-14">
          <mxGeometry relative="1" as="geometry">
            <mxPoint x="700" y="450" as="targetPoint" />
            <Array as="points">
              <mxPoint x="740" y="70" />
              <mxPoint x="740" y="265" />
              <mxPoint x="710" y="265" />
              <mxPoint x="710" y="460" />
            </Array>
          </mxGeometry>
        </mxCell>
        <mxCell id="--8OfGOdi-1qrSHV2bzc-11" value="LOTConf=&#39;ORANGE&#39;" style="rhombus;whiteSpace=wrap;html=1;" vertex="1" parent="WIyWlLk6GJQsqaUBKTNV-1">
          <mxGeometry x="530" y="30" width="130" height="80" as="geometry" />
        </mxCell>
        <mxCell id="--8OfGOdi-1qrSHV2bzc-13" value="&lt;br&gt;&lt;span style=&quot;color: rgb(51 , 102 , 255)&quot;&gt;GET /notification_methods?bank_code=$bank_code&amp;amp;flow=YELLOW&lt;/span&gt;&lt;br&gt;" style="rounded=0;whiteSpace=wrap;html=1;" vertex="1" parent="WIyWlLk6GJQsqaUBKTNV-1">
          <mxGeometry x="160" y="435" width="300" height="50" as="geometry" />
        </mxCell>
        <mxCell id="--8OfGOdi-1qrSHV2bzc-16" value="SI" style="edgeStyle=orthogonalEdgeStyle;rounded=0;orthogonalLoop=1;jettySize=auto;html=1;entryX=1;entryY=0.5;entryDx=0;entryDy=0;" edge="1" parent="WIyWlLk6GJQsqaUBKTNV-1" source="--8OfGOdi-1qrSHV2bzc-14" target="--8OfGOdi-1qrSHV2bzc-13">
          <mxGeometry relative="1" as="geometry" />
        </mxCell>
        <mxCell id="--8OfGOdi-1qrSHV2bzc-14" value="LOTConf=&#39;YELLOW&#39;" style="rhombus;whiteSpace=wrap;html=1;" vertex="1" parent="WIyWlLk6GJQsqaUBKTNV-1">
          <mxGeometry x="560" y="420" width="130" height="80" as="geometry" />
        </mxCell>
      </root>
    </mxGraphModel>
  </diagram>
</mxfile>
